<?xml version="1.0" encoding="utf-8"?>
<!-- Generator: Adobe Illustrator 18.1.1, SVG Export Plug-In . SVG Version: 6.00 Build 0)  -->
<svg version="1.1" id="Layer_1" xmlns="http://www.w3.org/2000/svg" xmlns:xlink="http://www.w3.org/1999/xlink" x="0px" y="0px"
	 viewBox="0 0 85 85" enable-background="new 0 0 85 85" xml:space="preserve">
<g>
	<g>
		<path fill="#FFFFFF" d="M-171.6,257.1"/>
	</g>
</g>
<image overflow="visible" width="1600" height="900" xlink:href="4CFD1F6F.jpg"  transform="matrix(1 0 0 1 -7602.8662 -7691.3979)">
</image>
<path fill="#FFFFFF" d="M-92.5,256.4v27.5c0,3.6-2.9,6.5-6.5,6.5h-15.9l-0.1,10.1l-17.1-10.1h-13.4c-3.6,0-6.5-2.9-6.5-6.5v-27.5
	c0-3.6,2.9-6.5,6.5-6.5H-99C-95.4,249.9-92.5,252.8-92.5,256.4z"/>
<path fill="#FFFFFF" d="M42.5,2C20.1,2,2,20.1,2,42.5S20.1,83,42.5,83S83,64.9,83,42.5S64.9,2,42.5,2z M44.3,15.7
	c3.2,0,5.8,2.7,5.8,6c0,3.3-2.6,6-5.8,6s-5.8-2.7-5.8-6C38.5,18.4,41.1,15.7,44.3,15.7z M52.4,54.6c0,0-11,6.1-14.8,7.9
	c-2.1,1-4.4-0.8-4-3.1c0.8-4.9,2.1-11.7,2.7-14.5c0.4-1.8,0.8-3.5,1.3-6.1l-7.5,1.7l-0.7-1.6c3.4-1.6,10.3-4.8,14.7-6.8
	c1.7-0.8,3.5,0.7,3.2,2.5c-0.8,4.9-2.2,12.7-3,16c-0.3,1.5-0.5,3-0.8,5.3c3.1-1,5.3-1.7,8.9-2.9V54.6z"/>
<g>
	<path fill="#FFFFFF" d="M344.4,77c-2.8,9.5-9,17.6-17.3,22.7c1.5-5.3,2.3-10.9,2.3-16.7c0-0.5,0-1,0-1.5c0.9-0.5,1.6-1.2,2.2-2v0
		C336.1,79.2,340.4,78.3,344.4,77z"/>
	<path fill="#FFFFFF" d="M322.5,83.1c0,7.4-1.5,14.5-4.3,20.9c-4,1.3-8.2,2-12.6,2c-3.8,0-7.5-0.5-11-1.5
		c5.4-10.5,14.6-18.9,26.1-23.5c0.5,0.5,1.1,0.9,1.8,1.2C322.5,82.4,322.5,82.7,322.5,83.1z"/>
	<path fill="#FFFFFF" d="M320.8,69.5c-0.9,0.8-1.6,1.8-2.1,2.9c-9.7-1.2-18.5-4.8-25.8-10.3c0.2-0.6,0.3-1.3,0.3-2
		c0-1.7-0.6-3.3-1.6-4.6c2.9-3.4,6.3-6.3,10-8.8c1.2,0.8,2.6,1.2,4.1,1.2c1,0,2-0.2,2.9-0.6C314.3,53.5,318.5,61.1,320.8,69.5z"/>
	<path fill="#FFFFFF" d="M346.1,65.4c0,1.2,0,2.4-0.2,3.6c-0.6,0.2-1.2,0.5-1.8,0.7c0,0,0,0,0,0c-0.7,0-1.5,0-2.2,0
		c-3.6,0-7,0.3-10.4,0.9c-1-1.2-2.3-2.2-3.9-2.6c-2.6-10-7.7-18.9-14.6-26c0-0.3,0.1-0.6,0.1-0.9c5-1.7,10.3-2.6,15.8-2.6
		c2.5,0,5,0.2,7.5,0.6C342.5,46.2,346.1,55.4,346.1,65.4z"/>
	<path fill="#FFFFFF" d="M327.8,31.6c-6.1,0.1-12,1.2-17.5,3.1c-1.3-1-2.9-1.6-4.7-1.6c-1,0-2,0.2-2.9,0.6
		c-3.8-2.4-7.9-4.4-12.2-5.8c4.7-1.9,9.8-2.9,15.1-2.9C313.8,24.9,321.4,27.4,327.8,31.6z"/>
	<path fill="#FFFFFF" d="M298.1,40.5c0,0,0,0.1,0,0.1c-5.1,3.3-9.5,7.4-13.3,12.1c-0.5,0-1,0.1-1.5,0.3c-3.5-4.4-6.2-9.3-7.9-14.7
		c1.8-2,3.9-3.9,6.1-5.5c6,1,11.6,3.2,16.7,6.3C298.2,39.6,298.1,40.1,298.1,40.5z"/>
	<path fill="#FFFFFF" d="M272.9,86.9c0,0.8,0,1.7,0.1,2.5c-4.9-6.7-7.9-15-7.9-24c0-7.4,2-14.4,5.5-20.3c2,4.7,4.7,9,7.9,12.9
		c-0.2,0.7-0.3,1.4-0.3,2.2c0,0.9,0.2,1.7,0.4,2.5C274.9,70,272.9,78.2,272.9,86.9z"/>
	<path fill="#FFFFFF" d="M310.6,78.1c-9.8,5.7-17.7,14-22.6,23.9c-2.4-1.2-4.7-2.6-6.9-4.2c-0.8-3.5-1.3-7.1-1.3-10.8
		c0-6.9,1.5-13.4,4.1-19.3c0.5,0.1,1.1,0.2,1.6,0.2c0.8,0,1.7-0.1,2.4-0.4C294.5,72.3,302.2,76,310.6,78.1z"/>
</g>
<path fill="#FFFFFF" d="M206.8,111.8l-29.9-8.1L171.7,84c-0.6-2.3-3-3.6-5.2-3l-37.2,10c-2.3,0.6-3.6,3-3,5.2l13.4,49.6
	c0.6,2.3,3,3.6,5.2,3l12.4-3.4l-1,3.7c-0.6,2.3,0.7,4.6,3,5.2l33.6,9.1c2.3,0.6,4.6-0.7,5.2-3l11.7-43.5
	C210.5,114.8,209.1,112.4,206.8,111.8z M145.5,140.5l-12-44.6l31.8-8.6l12,44.6L145.5,140.5z M191.7,157.6l-28.9-7.8l1.7-6.2
	l17.5-4.7c2.3-0.6,3.6-3,3-5.2l-6.1-22.5l23.6,6.4L191.7,157.6z"/>
<g>
	<g>
		<path fill="#FFFFFF" d="M17.8,129H7c-2.2,0-4-1.8-4-4V122c0-2.2,1.8-4,4-4h10.8c2.2,0,4,1.8,4,4v3.1C21.8,127.2,20,129,17.8,129z"
			/>
		<path fill="#FFFFFF" d="M81,129H35.4c-2.2,0-4-1.8-4-4V122c0-2.2,1.8-4,4-4H81c2.2,0,4,1.8,4,4v3.1C85,127.2,83.2,129,81,129z"/>
	</g>
	<g>
		<path fill="#FFFFFF" d="M17.8,152.6H7c-2.2,0-4-1.8-4-4v-3.1c0-2.2,1.8-4,4-4h10.8c2.2,0,4,1.8,4,4v3.1
			C21.8,150.8,20,152.6,17.8,152.6z"/>
		<path fill="#FFFFFF" d="M81,152.6H35.4c-2.2,0-4-1.8-4-4v-3.1c0-2.2,1.8-4,4-4H81c2.2,0,4,1.8,4,4v3.1
			C85,150.8,83.2,152.6,81,152.6z"/>
	</g>
	<g>
		<path fill="#FFFFFF" d="M17.8,176.1H7c-2.2,0-4-1.8-4-4V169c0-2.2,1.8-4,4-4h10.8c2.2,0,4,1.8,4,4v3.1
			C21.8,174.3,20,176.1,17.8,176.1z"/>
		<path fill="#FFFFFF" d="M81,176.1H35.4c-2.2,0-4-1.8-4-4V169c0-2.2,1.8-4,4-4H81c2.2,0,4,1.8,4,4v3.1
			C85,174.3,83.2,176.1,81,176.1z"/>
	</g>
</g>
<g>
	<path d="M554,118.1v6.2c0,3.3-2.8,6-6.2,6h-90.6c-3.4,0-6.2-2.7-6.2-6v-6.2c0-3.3,2.8-6,6.2-6h90.6
		C551.3,112.1,554,114.8,554,118.1z"/>
	<path d="M554,146.7v6.2c0,3.3-2.8,6-6.2,6h-90.6c-3.4,0-6.2-2.7-6.2-6v-6.2c0-3.3,2.8-6,6.2-6h90.6
		C551.3,140.7,554,143.4,554,146.7z"/>
	<path d="M554,175.3v6.2c0,3.3-2.8,6-6.2,6h-90.6c-3.4,0-6.2-2.7-6.2-6v-6.2c0-3.3,2.8-6,6.2-6h90.6C551.3,169.3,554,172,554,175.3z
		"/>
</g>
<g>
	<path d="M-221.3,169.7v10.4h-47v-34.2h14.2c3.5-3.6,7.8-6.3,13-7.9h-35V188h62.8v-24.1L-221.3,169.7z"/>
	<g>
		<g>
			<path d="M-225.2,153.8c-3.4-0.1-6.8-0.1-8.4-0.1c-13.5,0.3-23.1,12.7-27.3,18.8c-0.3-6.7,2.2-16.1,7.3-22.6
				c1.2-1.5,2.5-2.8,3.9-4c4.1-3.4,9.4-5.5,15.8-6.2h10.1V127l27.4,20.1l-17.2,12.9l-7.9,5.9l-2.3,1.8v-13.6L-225.2,153.8z"/>
			<path d="M-196.2,147l-17.2,12.9l-7.9,5.9l-2.3,1.8v-13.6l-1.5-0.1c-3.4-0.1-6.8-0.1-8.4-0.1c-13.5,0.3-23.1,12.7-27.3,18.8
				c-0.3-6.7,2.2-16.1,7.3-22.6c1.2-1.5,2.5-2.8,3.9-4c4.1-3.4,9.4-5.5,15.8-6.2h10.1V127L-196.2,147z"/>
		</g>
	</g>
</g>
<g>
	<path fill="#FFFFFF" d="M-210,279.8v10.4h-47V256h14.2c3.5-3.6,7.8-6.3,13-7.9h-35V298h62.8v-24.1L-210,279.8z"/>
	<g>
		<g>
			<path fill="#FFFFFF" d="M-213.8,263.9c-3.4-0.1-6.8-0.1-8.4-0.1c-13.5,0.3-23.1,12.7-27.3,18.8c-0.3-6.7,2.2-16.1,7.3-22.6
				c1.2-1.5,2.5-2.8,3.9-4c4.1-3.4,9.4-5.5,15.8-6.2h10.1V237l27.4,20.1l-17.2,12.9l-7.9,5.9l-2.3,1.8V264L-213.8,263.9z"/>
			<path fill="#FFFFFF" d="M-184.9,257.1l-17.2,12.9l-7.9,5.9l-2.3,1.8V264l-1.5-0.1c-3.4-0.1-6.8-0.1-8.4-0.1
				c-13.5,0.3-23.1,12.7-27.3,18.8c-0.3-6.7,2.2-16.1,7.3-22.6c1.2-1.5,2.5-2.8,3.9-4c4.1-3.4,9.4-5.5,15.8-6.2h10.1V237
				L-184.9,257.1z"/>
		</g>
	</g>
</g>
</svg>
