<?xml version="1.0" encoding="utf-8"?>
<!-- Generator: Adobe Illustrator 18.1.1, SVG Export Plug-In . SVG Version: 6.00 Build 0)  -->
<svg version="1.1" id="Layer_1" xmlns="http://www.w3.org/2000/svg" xmlns:xlink="http://www.w3.org/1999/xlink" x="0px" y="0px"
	 viewBox="0 0 30.5 27.8" enable-background="new 0 0 30.5 27.8" xml:space="preserve">
<path fill="#FFFFFF" d="M30.5,25.6v2.2l-7-0.1v-3.4c0-1.4-0.7-2.6-1.8-3.4l-3.8-2.7l0.5-0.4l-0.6-1.6c0,0-4.3-6.1,1.1-11.6
	c0.5-0.5,3.7-0.2,4.2,0.6c4,7.5,0.1,10.9,0.1,10.9l-0.4,1.6l6.5,2.6C30.4,21.2,30.5,24.2,30.5,25.6z"/>
<path fill="#FFFFFF" d="M21.3,24.3v3.4L0,27.6v-6.2l6.8-5.5l-0.1-0.3L6.2,14c0,0-3.2-4.5-1.4-9.6C5.3,3,6.1,1.6,7.5,0.3
	c0.6-0.6,4.3-0.1,5,0.8c5.5,6.6,0.2,13,0.2,13l-0.5,1.9l4.5,3.3l3.2,2.3C20.8,22.2,21.3,23.2,21.3,24.3z"/>
</svg>
