<?xml version="1.0" encoding="utf-8"?>
<!-- Generator: Adobe Illustrator 18.1.1, SVG Export Plug-In . SVG Version: 6.00 Build 0)  -->
<svg version="1.1" id="Layer_1" xmlns="http://www.w3.org/2000/svg" xmlns:xlink="http://www.w3.org/1999/xlink" x="0px" y="0px"
	 viewBox="0 0 25 25" enable-background="new 0 0 25 25" xml:space="preserve">
<g>
	<path fill="#FFFFFF" d="M25,4.8v1.5c0,0.8-0.7,1.5-1.5,1.5h-22C0.7,7.8,0,7.1,0,6.3V4.8C0,4,0.7,3.3,1.5,3.3h22
		C24.3,3.3,25,4,25,4.8z"/>
	<path fill="#FFFFFF" d="M25,11.7v1.5c0,0.8-0.7,1.5-1.5,1.5h-22c-0.8,0-1.5-0.7-1.5-1.5v-1.5c0-0.8,0.7-1.5,1.5-1.5h22
		C24.3,10.3,25,10.9,25,11.7z"/>
	<path fill="#FFFFFF" d="M25,18.7v1.5c0,0.8-0.7,1.5-1.5,1.5h-22C0.7,21.7,0,21,0,20.2v-1.5c0-0.8,0.7-1.5,1.5-1.5h22
		C24.3,17.2,25,17.9,25,18.7z"/>
</g>
</svg>
