<?xml version="1.0" encoding="utf-8"?>
<!-- Generator: Adobe Illustrator 18.1.1, SVG Export Plug-In . SVG Version: 6.00 Build 0)  -->
<svg version="1.1" id="Layer_1" xmlns="http://www.w3.org/2000/svg" xmlns:xlink="http://www.w3.org/1999/xlink" x="0px" y="0px"
	 viewBox="0 0 81.6 81.9" enable-background="new 0 0 81.6 81.9" xml:space="preserve">
<path d="M23.6,21.3C17.3,22.6,4,40.5,4,54.4s12.4,25.1,27.6,25.1c15.3,0,31.2-14.1,31.2-17.6C62.8,48.1,38.6,18.2,23.6,21.3z
	 M57.7,62.7c-7.3,4.5-37-20.4-33.7-35.1c1.1-4.8,12.8,2.3,21.8,11.8C54.8,48.8,61.1,60.6,57.7,62.7z"/>
<path d="M52.6,5.1l-5.5,11.3c-0.8,1.6-2.7,2.3-4.3,1.5l-1-0.5c-1.6-0.8-2.3-2.7-1.5-4.3l5.5-11.3c0.8-1.6,2.7-2.3,4.3-1.5l1,0.5
	C52.7,1.6,53.4,3.5,52.6,5.1z"/>
<path d="M80.5,37.6L69.7,44c-1.5,0.9-3.5,0.4-4.4-1.1L64.8,42c-0.9-1.5-0.4-3.5,1.1-4.4l10.8-6.4c1.5-0.9,3.5-0.4,4.4,1.1l0.5,0.9
	C82.6,34.7,82.1,36.7,80.5,37.6z"/>
<path d="M69.8,17.8l-8.5,9.3c-1.2,1.3-3.2,1.4-4.5,0.2L56,26.6c-1.3-1.2-1.4-3.2-0.2-4.5l8.5-9.3c1.2-1.3,3.2-1.4,4.5-0.2l0.8,0.7
	C70.9,14.5,71,16.5,69.8,17.8z"/>
</svg>
