<?xml version="1.0" encoding="UTF-8" ?>
<!DOCTYPE svg PUBLIC "-//W3C//DTD SVG 1.1//EN" "http://www.w3.org/Graphics/SVG/1.1/DTD/svg11.dtd">
<svg width="1033pt" height="274pt" viewBox="0 0 1033 274" version="1.1" xmlns="http://www.w3.org/2000/svg">
<path fill="#fefefe" d=" M 0.00 0.00 L 964.31 0.00 C 959.90 1.63 955.43 3.21 951.29 5.47 C 949.59 6.40 949.76 8.66 949.13 10.25 C 945.51 11.11 941.43 11.51 938.87 14.57 C 936.36 14.59 933.85 14.57 931.35 14.56 C 932.18 16.06 933.06 17.55 933.91 19.05 C 930.02 20.25 925.15 20.55 922.73 24.29 C 919.90 24.70 917.07 25.02 914.25 25.45 C 914.41 26.14 914.72 27.54 914.88 28.24 C 911.57 28.97 908.53 30.52 906.02 32.79 C 906.80 33.36 908.35 34.50 909.12 35.07 C 906.16 35.51 902.53 35.31 900.87 38.35 C 897.02 39.31 893.27 40.56 889.65 42.17 C 890.50 42.67 892.18 43.66 893.03 44.15 C 888.80 44.71 884.43 44.96 880.45 46.63 C 879.18 47.03 878.74 48.42 878.03 49.38 C 875.63 49.07 873.22 48.75 870.82 48.50 C 871.63 50.06 872.47 51.61 873.34 53.14 C 869.70 54.27 866.10 55.50 862.39 56.35 C 862.49 56.86 862.68 57.89 862.78 58.40 C 859.47 58.74 856.18 59.18 852.93 59.88 C 853.36 60.64 854.22 62.15 854.65 62.91 C 851.91 62.49 849.17 61.48 846.37 61.88 C 845.69 62.68 845.24 63.61 844.58 64.40 C 842.70 64.40 840.85 63.39 839.00 63.91 C 837.56 64.53 836.29 65.45 834.99 66.29 C 831.36 65.38 827.58 64.83 823.85 65.36 C 822.32 65.16 821.69 66.61 820.97 67.59 C 817.71 67.13 814.42 66.33 811.13 66.91 C 806.42 67.67 801.91 69.78 797.06 69.42 C 785.01 68.89 772.96 68.26 760.92 67.61 C 756.12 67.42 751.86 64.58 747.04 64.51 C 742.87 64.19 738.71 64.82 734.77 66.16 C 731.94 65.38 729.09 64.69 726.20 64.20 C 726.28 65.01 726.44 66.61 726.52 67.42 C 723.17 67.34 719.71 67.69 717.29 70.27 C 713.42 70.45 709.58 70.93 705.84 71.88 C 705.72 72.51 705.48 73.77 705.36 74.40 C 704.08 75.70 702.80 77.00 701.56 78.33 C 693.18 79.09 684.30 77.70 677.40 72.62 C 667.88 65.91 663.61 54.15 662.24 43.00 C 660.76 34.41 661.69 25.69 661.77 17.04 C 661.93 14.61 660.88 12.41 659.81 10.32 C 658.28 10.32 656.76 10.33 655.25 10.33 C 651.28 14.20 648.86 19.27 647.32 24.53 C 641.42 41.46 643.30 60.67 651.45 76.54 C 653.27 79.96 657.25 81.43 659.28 84.70 C 660.67 86.98 661.07 89.68 661.65 92.25 C 664.09 95.30 666.67 98.24 669.15 101.25 C 667.42 102.84 666.15 104.79 666.19 107.22 C 664.59 109.19 663.17 111.31 662.20 113.66 C 663.84 114.57 665.37 115.71 666.79 116.97 C 665.92 117.20 665.06 117.44 664.21 117.68 C 663.79 118.21 662.95 119.26 662.54 119.79 C 662.52 120.74 662.49 122.64 662.48 123.59 C 663.37 123.66 665.16 123.80 666.05 123.87 C 664.47 125.43 662.73 126.89 661.53 128.78 C 661.60 130.10 661.74 131.41 661.94 132.72 C 660.71 135.68 659.66 138.71 658.98 141.85 C 660.46 141.28 661.94 140.70 663.42 140.13 C 662.71 141.95 662.03 143.78 661.33 145.60 C 662.48 146.05 663.64 146.50 664.80 146.95 C 663.68 148.38 662.56 149.81 661.44 151.23 C 661.45 151.82 661.45 153.01 661.46 153.61 C 661.07 153.94 660.30 154.61 659.91 154.94 C 659.68 156.42 659.47 157.89 659.25 159.37 C 660.09 159.55 661.75 159.92 662.58 160.10 C 661.07 162.96 659.59 165.84 658.12 168.72 C 659.12 168.65 661.11 168.51 662.11 168.44 C 657.74 171.03 654.12 174.99 652.26 179.73 C 652.86 181.07 653.64 182.31 654.40 183.58 C 653.05 185.00 651.50 186.31 650.53 188.03 C 650.71 189.05 651.02 190.04 651.31 191.04 C 648.30 192.64 645.90 195.08 644.11 197.95 C 644.28 198.50 644.64 199.61 644.82 200.16 C 644.56 201.36 644.31 202.56 644.07 203.76 C 641.44 205.30 639.65 207.74 638.39 210.47 C 634.15 212.18 630.11 214.39 626.56 217.29 C 627.85 217.52 630.44 217.98 631.73 218.21 C 629.43 218.88 627.12 219.43 624.78 219.88 C 624.76 220.75 624.75 221.61 624.76 222.48 C 623.12 223.94 621.57 225.46 620.05 227.03 C 620.62 227.42 621.74 228.19 622.31 228.57 C 620.46 230.99 617.97 233.62 618.59 236.94 C 619.38 242.83 620.36 248.70 621.12 254.59 C 621.91 261.05 623.75 267.44 623.20 274.00 L 0.00 274.00 L 0.00 0.00 Z" />
<path fill="#5068a6" d=" M 964.31 0.00 L 972.47 0.00 C 978.54 2.42 984.50 5.12 990.75 7.06 C 994.78 8.59 999.25 9.45 1002.72 12.16 C 1006.55 15.00 1001.84 21.24 1006.10 23.77 C 1012.98 28.79 1020.67 32.70 1028.62 35.72 C 1029.83 36.32 1031.36 36.65 1032.13 37.89 C 1032.51 41.74 1031.34 45.52 1030.33 49.19 C 1025.91 51.73 1020.80 51.35 1015.93 50.93 C 1018.95 52.96 1022.26 54.47 1025.63 55.81 C 1025.61 56.26 1025.58 57.18 1025.57 57.63 C 1023.22 59.19 1020.92 61.28 1017.98 61.44 C 1013.93 61.74 1009.87 61.51 1005.82 61.55 C 1004.19 62.68 1002.62 63.93 1000.82 64.76 C 999.49 64.62 998.22 64.15 996.96 63.81 C 995.04 66.02 992.62 67.86 989.53 67.61 C 987.33 65.59 984.67 67.33 982.31 67.94 C 982.05 67.21 981.52 65.77 981.25 65.04 C 979.94 66.87 978.60 68.67 977.29 70.49 C 976.60 70.51 975.23 70.54 974.54 70.56 C 973.77 73.27 972.73 75.90 971.25 78.30 C 970.58 78.35 969.26 78.45 968.60 78.50 C 967.32 79.67 966.02 80.82 964.74 81.97 C 964.13 81.06 963.60 80.15 963.03 79.24 C 962.12 81.39 960.83 83.35 959.23 85.05 C 958.75 84.59 957.81 83.69 957.34 83.24 C 954.85 85.87 952.69 88.83 951.94 92.44 C 951.41 92.38 950.35 92.26 949.82 92.19 C 948.49 93.64 947.13 95.04 945.72 96.38 C 945.61 98.20 945.53 100.02 945.45 101.84 C 944.54 101.31 943.65 100.79 942.78 100.26 C 942.67 103.09 941.81 105.78 940.05 108.01 C 939.84 111.05 939.57 114.85 935.74 115.28 C 935.32 119.12 935.54 123.63 932.59 126.58 C 931.37 128.05 929.25 127.51 927.62 127.86 C 927.60 129.60 927.60 131.34 927.60 133.09 C 926.42 132.85 925.25 132.61 924.09 132.38 C 923.91 133.37 923.75 134.36 923.60 135.36 C 922.76 135.83 921.94 136.30 921.14 136.78 C 920.20 139.44 918.87 142.09 915.61 142.01 C 914.57 142.82 913.52 143.62 912.51 144.44 C 913.66 147.07 913.21 149.78 912.11 152.32 C 916.50 156.21 921.73 159.02 926.12 162.90 C 928.00 164.31 927.70 166.91 927.61 168.98 C 927.30 173.08 925.37 176.78 923.17 180.15 C 911.56 182.10 900.85 187.18 889.85 191.15 C 889.45 193.36 888.99 195.56 888.49 197.75 C 887.13 197.17 885.82 196.58 884.49 196.00 C 886.00 200.36 887.62 205.16 886.40 209.78 C 885.93 210.10 884.98 210.76 884.51 211.09 C 884.91 215.42 884.43 219.72 883.79 224.00 C 884.57 226.67 886.29 229.18 885.91 232.09 C 885.90 234.02 884.42 235.43 883.42 236.94 C 883.39 244.08 882.55 251.18 882.47 258.32 C 887.66 260.13 894.09 261.16 896.57 266.79 C 896.00 267.99 895.43 269.18 894.89 270.39 C 886.54 270.87 878.17 270.58 869.81 270.59 C 869.67 266.79 869.55 262.88 867.73 259.45 C 866.19 256.62 866.16 253.38 866.30 250.25 C 865.37 249.38 864.48 248.52 863.58 247.65 C 863.45 245.09 863.27 242.53 863.44 239.97 C 863.62 235.59 866.33 231.84 866.71 227.48 C 864.72 229.32 863.49 231.76 862.41 234.20 C 860.55 231.81 859.87 228.72 860.87 225.82 C 862.40 221.13 863.04 216.24 863.45 211.34 C 861.71 212.14 859.99 212.94 858.26 213.72 C 858.54 209.46 860.52 205.68 863.24 202.48 C 862.36 202.49 860.59 202.50 859.71 202.51 C 859.16 200.37 858.14 198.22 858.51 195.98 C 859.49 193.31 861.51 191.22 863.09 188.90 C 861.19 189.78 859.32 190.70 857.46 191.62 C 856.95 189.46 856.52 187.30 856.16 185.12 C 854.87 185.28 853.59 185.44 852.32 185.60 C 852.46 182.55 852.98 179.54 853.74 176.59 C 853.12 176.59 851.87 176.60 851.24 176.61 C 851.30 174.45 851.38 172.29 851.47 170.14 C 849.49 171.19 847.50 172.22 845.50 173.23 C 845.16 171.36 844.83 169.50 844.52 167.63 C 841.75 166.60 838.99 165.57 836.21 164.59 C 834.75 164.90 833.14 166.26 831.69 165.24 C 828.88 163.38 826.45 161.01 823.50 159.37 C 819.08 161.52 814.21 160.37 810.17 158.01 C 810.20 158.97 810.27 160.89 810.31 161.85 C 807.40 161.27 804.57 160.36 801.86 159.17 C 801.42 159.57 800.56 160.37 800.12 160.77 C 798.25 159.43 796.39 158.10 794.54 156.75 C 793.48 156.73 792.43 156.72 791.40 156.71 C 791.30 157.96 791.21 159.20 791.12 160.45 C 787.72 158.69 784.98 155.99 782.78 152.91 C 782.26 153.91 781.75 154.92 781.24 155.94 C 779.96 154.94 778.68 153.95 777.41 152.96 C 777.33 154.64 777.26 156.33 777.20 158.03 C 772.57 154.47 768.41 150.37 764.37 146.17 C 763.70 148.04 763.04 149.90 762.34 151.74 C 760.45 150.41 758.56 149.09 756.68 147.76 C 754.52 151.70 751.06 147.91 748.16 147.28 C 745.49 149.83 743.36 152.95 740.22 154.98 C 739.57 156.88 738.90 158.77 738.15 160.63 C 736.56 160.19 735.04 159.50 733.42 159.30 C 734.39 161.90 736.69 164.07 736.48 167.04 C 736.57 168.77 735.28 170.11 734.49 171.52 C 733.47 170.58 732.46 169.64 731.47 168.69 C 729.44 174.28 729.09 180.42 725.84 185.55 C 725.04 185.48 723.43 185.35 722.62 185.28 C 721.69 190.24 721.18 195.99 717.22 199.60 C 714.35 199.79 715.97 195.51 715.24 193.73 C 715.59 193.30 716.28 192.46 716.62 192.04 C 715.72 192.29 714.83 192.55 713.95 192.81 C 711.83 197.35 709.50 201.85 706.07 205.56 C 705.05 205.58 704.04 205.59 703.03 205.62 C 701.08 209.96 697.40 213.13 692.93 214.68 C 692.76 213.69 692.42 211.73 692.25 210.74 C 691.53 214.65 689.91 218.34 687.04 221.15 C 686.72 220.37 686.06 218.81 685.74 218.03 C 680.77 222.75 675.97 227.86 673.02 234.12 C 671.24 237.81 671.47 241.99 671.04 245.96 C 670.37 252.26 670.50 258.63 671.55 264.88 C 674.52 265.62 678.70 265.47 680.18 268.75 C 680.31 270.05 680.09 271.35 680.00 272.65 C 672.24 272.69 664.47 272.74 656.71 272.60 C 658.06 257.75 659.03 242.85 660.09 227.97 C 657.93 229.55 655.53 231.11 652.81 229.92 C 651.66 231.57 650.51 233.22 649.36 234.87 C 648.79 234.82 647.66 234.73 647.10 234.69 C 646.02 236.03 644.95 237.37 643.89 238.71 C 643.18 238.62 641.76 238.44 641.06 238.35 C 637.83 242.03 634.64 246.07 633.69 251.00 C 632.82 256.12 632.92 261.64 635.52 266.28 C 637.87 266.91 640.50 267.08 642.53 268.55 C 644.25 269.82 643.54 272.19 643.61 274.00 L 623.20 274.00 C 623.75 267.44 621.91 261.05 621.12 254.59 C 620.36 248.70 619.38 242.83 618.59 236.94 C 617.97 233.62 620.46 230.99 622.31 228.57 C 621.74 228.19 620.62 227.42 620.05 227.03 C 621.57 225.46 623.12 223.94 624.76 222.48 C 624.75 221.61 624.76 220.75 624.78 219.88 C 627.12 219.43 629.43 218.88 631.73 218.21 C 630.44 217.98 627.85 217.52 626.56 217.29 C 630.11 214.39 634.15 212.18 638.39 210.47 C 639.65 207.74 641.44 205.30 644.07 203.76 C 644.31 202.56 644.56 201.36 644.82 200.16 C 644.64 199.61 644.28 198.50 644.11 197.95 C 645.90 195.08 648.30 192.64 651.31 191.04 C 651.02 190.04 650.71 189.05 650.53 188.03 C 651.50 186.31 653.05 185.00 654.40 183.58 C 653.64 182.31 652.86 181.07 652.26 179.73 C 654.12 174.99 657.74 171.03 662.11 168.44 C 661.11 168.51 659.12 168.65 658.12 168.72 C 659.59 165.84 661.07 162.96 662.58 160.10 C 661.75 159.92 660.09 159.55 659.25 159.37 C 659.47 157.89 659.68 156.42 659.91 154.94 C 660.30 154.61 661.07 153.94 661.46 153.61 C 661.45 153.01 661.45 151.82 661.44 151.23 C 662.56 149.81 663.68 148.38 664.80 146.95 C 663.64 146.50 662.48 146.05 661.33 145.60 C 662.03 143.78 662.71 141.95 663.42 140.13 C 661.94 140.70 660.46 141.28 658.98 141.85 C 659.66 138.71 660.71 135.68 661.94 132.72 C 661.74 131.41 661.60 130.10 661.53 128.78 C 662.73 126.89 664.47 125.43 666.05 123.87 C 665.16 123.80 663.37 123.66 662.48 123.59 C 662.49 122.64 662.52 120.74 662.54 119.79 C 662.95 119.26 663.79 118.21 664.21 117.68 C 665.06 117.44 665.92 117.20 666.79 116.97 C 665.37 115.71 663.84 114.57 662.20 113.66 C 663.17 111.31 664.59 109.19 666.19 107.22 C 666.15 104.79 667.42 102.84 669.15 101.25 C 666.67 98.24 664.09 95.30 661.65 92.25 C 661.07 89.68 660.67 86.98 659.28 84.70 C 657.25 81.43 653.27 79.96 651.45 76.54 C 643.30 60.67 641.42 41.46 647.32 24.53 C 648.86 19.27 651.28 14.20 655.25 10.33 C 656.76 10.33 658.28 10.32 659.81 10.32 C 660.88 12.41 661.93 14.61 661.77 17.04 C 661.69 25.69 660.76 34.41 662.24 43.00 C 663.61 54.15 667.88 65.91 677.40 72.62 C 684.30 77.70 693.18 79.09 701.56 78.33 C 702.80 77.00 704.08 75.70 705.36 74.40 C 705.48 73.77 705.72 72.51 705.84 71.88 C 709.58 70.93 713.42 70.45 717.29 70.27 C 719.71 67.69 723.17 67.34 726.52 67.42 C 726.44 66.61 726.28 65.01 726.20 64.20 C 729.09 64.69 731.94 65.38 734.77 66.16 C 738.71 64.82 742.87 64.19 747.04 64.51 C 751.86 64.58 756.12 67.42 760.92 67.61 C 772.96 68.26 785.01 68.89 797.06 69.42 C 801.91 69.78 806.42 67.67 811.13 66.91 C 814.42 66.33 817.71 67.13 820.97 67.59 C 821.69 66.61 822.32 65.16 823.85 65.36 C 827.58 64.83 831.36 65.38 834.99 66.29 C 836.29 65.45 837.56 64.53 839.00 63.91 C 840.85 63.39 842.70 64.40 844.58 64.40 C 845.24 63.61 845.69 62.68 846.37 61.88 C 849.17 61.48 851.91 62.49 854.65 62.91 C 854.22 62.15 853.36 60.64 852.93 59.88 C 856.18 59.18 859.47 58.74 862.78 58.40 C 862.68 57.89 862.49 56.86 862.39 56.35 C 866.10 55.50 869.70 54.27 873.34 53.14 C 872.47 51.61 871.63 50.06 870.82 48.50 C 873.22 48.75 875.63 49.07 878.03 49.38 C 878.74 48.42 879.18 47.03 880.45 46.63 C 884.43 44.96 888.80 44.71 893.03 44.15 C 892.18 43.66 890.50 42.67 889.65 42.17 C 893.27 40.56 897.02 39.31 900.87 38.35 C 902.53 35.31 906.16 35.51 909.12 35.07 C 908.35 34.50 906.80 33.36 906.02 32.79 C 908.53 30.52 911.57 28.97 914.88 28.24 C 914.72 27.54 914.41 26.14 914.25 25.45 C 917.07 25.02 919.90 24.70 922.73 24.29 C 925.15 20.55 930.02 20.25 933.91 19.05 C 933.06 17.55 932.18 16.06 931.35 14.56 C 933.85 14.57 936.36 14.59 938.87 14.57 C 941.43 11.51 945.51 11.11 949.13 10.25 C 949.76 8.66 949.59 6.40 951.29 5.47 C 955.43 3.21 959.90 1.63 964.31 0.00 Z" />
<path fill="#fefefe" d=" M 972.47 0.00 L 1033.00 0.00 L 1033.00 274.00 L 643.61 274.00 C 643.54 272.19 644.25 269.82 642.53 268.55 C 640.50 267.08 637.87 266.91 635.52 266.28 C 632.92 261.64 632.82 256.12 633.69 251.00 C 634.64 246.07 637.83 242.03 641.06 238.35 C 641.76 238.44 643.18 238.62 643.89 238.71 C 644.95 237.37 646.02 236.03 647.10 234.69 C 647.66 234.73 648.79 234.82 649.36 234.87 C 650.51 233.22 651.66 231.57 652.81 229.92 C 655.53 231.11 657.93 229.55 660.09 227.97 C 659.03 242.85 658.06 257.75 656.71 272.60 C 664.47 272.74 672.24 272.69 680.00 272.65 C 680.09 271.35 680.31 270.05 680.18 268.75 C 678.70 265.47 674.52 265.62 671.55 264.88 C 670.50 258.63 670.37 252.26 671.04 245.96 C 671.47 241.99 671.24 237.81 673.02 234.12 C 675.97 227.86 680.77 222.75 685.74 218.03 C 686.06 218.81 686.72 220.37 687.04 221.15 C 689.91 218.34 691.53 214.65 692.25 210.74 C 692.42 211.73 692.76 213.69 692.93 214.68 C 697.40 213.13 701.08 209.96 703.03 205.62 C 704.04 205.59 705.05 205.58 706.07 205.56 C 709.50 201.85 711.83 197.35 713.95 192.81 C 714.83 192.55 715.72 192.29 716.62 192.04 C 716.28 192.46 715.59 193.30 715.24 193.73 C 715.97 195.51 714.35 199.79 717.22 199.60 C 721.18 195.99 721.69 190.24 722.62 185.28 C 723.43 185.35 725.04 185.48 725.84 185.55 C 729.09 180.42 729.44 174.28 731.47 168.69 C 732.46 169.64 733.47 170.58 734.49 171.52 C 735.28 170.11 736.57 168.77 736.48 167.04 C 736.69 164.07 734.39 161.90 733.42 159.30 C 735.04 159.50 736.56 160.19 738.15 160.63 C 738.90 158.77 739.57 156.88 740.22 154.98 C 743.36 152.95 745.49 149.83 748.16 147.28 C 751.06 147.91 754.52 151.70 756.68 147.76 C 758.56 149.09 760.45 150.41 762.34 151.74 C 763.04 149.90 763.70 148.04 764.37 146.17 C 768.41 150.37 772.57 154.47 777.20 158.03 C 777.26 156.33 777.33 154.64 777.41 152.96 C 778.68 153.95 779.96 154.94 781.24 155.94 C 781.75 154.92 782.26 153.91 782.78 152.91 C 784.98 155.99 787.72 158.69 791.12 160.45 C 791.21 159.20 791.30 157.96 791.40 156.71 C 792.43 156.72 793.48 156.73 794.54 156.75 C 796.39 158.10 798.25 159.43 800.12 160.77 C 800.56 160.37 801.42 159.57 801.86 159.17 C 804.57 160.36 807.40 161.27 810.31 161.85 C 810.27 160.89 810.20 158.97 810.17 158.01 C 814.21 160.37 819.08 161.52 823.50 159.37 C 826.45 161.01 828.88 163.38 831.69 165.24 C 833.14 166.26 834.75 164.90 836.21 164.59 C 838.99 165.57 841.75 166.60 844.52 167.63 C 844.83 169.50 845.16 171.36 845.50 173.23 C 847.50 172.22 849.49 171.19 851.47 170.14 C 851.38 172.29 851.30 174.45 851.24 176.61 C 851.87 176.60 853.12 176.59 853.74 176.59 C 852.98 179.54 852.46 182.55 852.32 185.60 C 853.59 185.44 854.87 185.28 856.16 185.12 C 856.52 187.30 856.95 189.46 857.46 191.62 C 859.32 190.70 861.19 189.78 863.09 188.90 C 861.51 191.22 859.49 193.31 858.51 195.98 C 858.14 198.22 859.16 200.37 859.71 202.51 C 860.59 202.50 862.36 202.49 863.24 202.48 C 860.52 205.68 858.54 209.46 858.26 213.72 C 859.99 212.94 861.71 212.14 863.45 211.34 C 863.04 216.24 862.40 221.13 860.87 225.82 C 859.87 228.72 860.55 231.81 862.41 234.20 C 863.49 231.76 864.72 229.32 866.71 227.48 C 866.33 231.84 863.62 235.59 863.44 239.97 C 863.27 242.53 863.45 245.09 863.58 247.65 C 864.48 248.52 865.37 249.38 866.30 250.25 C 866.16 253.38 866.19 256.62 867.73 259.45 C 869.55 262.88 869.67 266.79 869.81 270.59 C 878.17 270.58 886.54 270.87 894.89 270.39 C 895.43 269.18 896.00 267.99 896.57 266.79 C 894.09 261.16 887.66 260.13 882.47 258.32 C 882.55 251.18 883.39 244.08 883.42 236.94 C 884.42 235.43 885.90 234.02 885.91 232.09 C 886.29 229.18 884.57 226.67 883.79 224.00 C 884.43 219.72 884.91 215.42 884.51 211.09 C 884.98 210.76 885.93 210.10 886.40 209.78 C 887.62 205.16 886.00 200.36 884.49 196.00 C 885.82 196.58 887.13 197.17 888.49 197.75 C 888.99 195.56 889.45 193.36 889.85 191.15 C 900.85 187.18 911.56 182.10 923.17 180.15 C 925.37 176.78 927.30 173.08 927.61 168.98 C 927.70 166.91 928.00 164.31 926.12 162.90 C 921.73 159.02 916.50 156.21 912.11 152.32 C 913.21 149.78 913.66 147.07 912.51 144.44 C 913.52 143.62 914.57 142.82 915.61 142.01 C 918.87 142.09 920.20 139.44 921.14 136.78 C 921.94 136.30 922.76 135.83 923.60 135.36 C 923.75 134.36 923.91 133.37 924.09 132.38 C 925.25 132.61 926.42 132.85 927.60 133.09 C 927.60 131.34 927.60 129.60 927.62 127.86 C 929.25 127.51 931.37 128.05 932.59 126.58 C 935.54 123.63 935.32 119.12 935.74 115.28 C 939.57 114.85 939.84 111.05 940.05 108.01 C 941.81 105.78 942.67 103.09 942.78 100.26 C 943.65 100.79 944.54 101.31 945.45 101.84 C 945.53 100.02 945.61 98.20 945.72 96.38 C 947.13 95.04 948.49 93.64 949.82 92.19 C 950.35 92.26 951.41 92.38 951.94 92.44 C 952.69 88.83 954.85 85.87 957.34 83.24 C 957.81 83.69 958.75 84.59 959.23 85.05 C 960.83 83.35 962.12 81.39 963.03 79.24 C 963.60 80.15 964.13 81.06 964.74 81.97 C 966.02 80.82 967.32 79.67 968.60 78.50 C 969.26 78.45 970.58 78.35 971.25 78.30 C 972.73 75.90 973.77 73.27 974.54 70.56 C 975.23 70.54 976.60 70.51 977.29 70.49 C 978.60 68.67 979.94 66.87 981.25 65.04 C 981.52 65.77 982.05 67.21 982.31 67.94 C 984.67 67.33 987.33 65.59 989.53 67.61 C 992.62 67.86 995.04 66.02 996.96 63.81 C 998.22 64.15 999.49 64.62 1000.82 64.76 C 1002.62 63.93 1004.19 62.68 1005.82 61.55 C 1009.87 61.51 1013.93 61.74 1017.98 61.44 C 1020.92 61.28 1023.22 59.19 1025.57 57.63 C 1025.58 57.18 1025.61 56.26 1025.63 55.81 C 1022.26 54.47 1018.95 52.96 1015.93 50.93 C 1020.80 51.35 1025.91 51.73 1030.33 49.19 C 1031.34 45.52 1032.51 41.74 1032.13 37.89 C 1031.36 36.65 1029.83 36.32 1028.62 35.72 C 1020.67 32.70 1012.98 28.79 1006.10 23.77 C 1001.84 21.24 1006.55 15.00 1002.72 12.16 C 999.25 9.45 994.78 8.59 990.75 7.06 C 984.50 5.12 978.54 2.42 972.47 0.00 Z" />
<path fill="#010101" d=" M 29.14 13.42 C 39.05 8.61 50.11 6.72 61.03 6.27 C 73.11 6.11 85.31 6.18 97.16 8.78 C 103.61 10.32 110.33 13.05 114.31 18.61 C 117.54 23.04 117.14 28.91 116.01 33.98 C 114.63 40.14 111.37 45.67 107.32 50.44 C 94.26 43.86 79.02 41.68 64.59 43.86 C 58.04 45.00 50.88 47.64 47.58 53.85 C 44.79 59.50 45.76 66.08 47.01 72.00 C 49.14 80.46 54.16 87.81 59.26 94.74 C 71.51 110.49 83.81 126.19 96.07 141.93 C 103.86 152.18 110.47 163.54 114.00 175.98 C 116.96 186.36 116.97 197.25 116.67 207.95 C 115.73 221.71 113.37 236.00 105.47 247.63 C 96.02 262.26 78.95 270.53 61.94 272.16 C 49.91 273.29 37.62 273.13 25.77 270.57 C 16.82 268.59 7.93 263.91 2.96 255.96 C -0.57 250.17 0.86 243.14 2.13 236.90 C 3.54 230.07 6.32 223.59 10.03 217.70 C 21.83 227.33 37.83 231.86 52.90 229.33 C 58.40 228.41 63.91 225.69 66.79 220.71 C 71.76 212.43 72.32 202.15 70.63 192.83 C 68.91 182.99 63.24 174.49 57.64 166.45 C 49.16 154.87 40.50 143.42 31.93 131.91 C 22.93 119.56 12.88 107.71 6.70 93.59 C 3.52 86.09 1.30 78.09 0.76 69.94 C 0.58 61.62 0.24 53.09 2.80 45.06 C 6.63 31.44 16.42 19.61 29.14 13.42 Z" />
<path fill="#010101" d=" M 524.30 20.24 C 530.10 17.49 536.72 17.59 543.00 17.44 C 548.99 17.10 555.00 17.29 561.00 17.24 C 561.00 39.50 561.00 61.75 561.00 84.00 C 571.16 84.00 581.33 84.00 591.50 84.00 C 591.44 93.08 591.49 102.18 590.73 111.23 C 590.32 114.24 589.83 118.58 586.07 119.04 C 577.73 119.54 569.35 119.10 561.00 119.25 C 561.00 150.51 561.00 181.77 561.00 213.03 C 560.99 219.67 560.92 226.43 562.53 232.92 C 563.32 235.79 566.28 237.33 569.11 237.43 C 576.10 237.64 582.90 235.40 589.21 232.58 C 590.71 240.75 592.78 249.13 591.33 257.47 C 590.36 262.63 586.06 266.33 581.70 268.77 C 574.42 272.57 565.96 272.71 557.94 272.78 C 549.01 272.89 539.45 271.48 532.27 265.75 C 526.21 260.97 523.03 253.53 521.50 246.15 C 519.94 237.86 519.35 229.40 519.50 220.96 C 519.50 187.06 519.50 153.15 519.49 119.24 C 512.07 119.25 504.66 119.25 497.24 119.25 C 497.34 109.81 496.87 100.32 498.07 90.94 C 498.40 88.13 499.59 84.56 502.88 84.20 C 508.39 83.73 513.96 84.13 519.50 84.00 C 519.50 65.65 519.49 47.31 519.50 28.96 C 519.44 25.48 521.02 21.79 524.30 20.24 Z" />
<path fill="#fefefe" d=" M 987.27 17.59 C 987.84 17.50 988.99 17.32 989.56 17.23 C 989.47 18.21 989.38 19.19 989.31 20.18 C 986.44 23.93 990.69 29.93 986.82 32.90 C 986.57 35.28 986.40 37.72 987.38 39.97 C 986.09 42.34 985.97 45.08 985.56 47.69 C 984.96 47.67 983.77 47.64 983.18 47.62 C 983.41 45.34 982.11 41.33 986.04 42.32 C 983.74 38.99 984.42 35.05 984.69 31.30 C 985.39 31.45 986.78 31.75 987.47 31.90 C 987.37 28.91 986.24 25.82 987.46 22.91 C 987.38 21.14 987.30 19.37 987.27 17.59 Z" />
<path fill="#fefefe" d=" M 982.33 49.39 C 983.36 49.47 985.44 49.63 986.48 49.71 C 987.28 53.81 986.44 57.93 984.19 61.44 C 983.38 61.41 981.77 61.35 980.97 61.31 C 978.61 60.47 976.19 59.87 973.79 59.23 C 973.63 58.67 973.31 57.56 973.15 57.01 C 969.42 56.56 966.52 54.00 963.00 52.92 C 963.76 52.61 964.52 52.31 965.31 52.00 C 966.83 55.02 970.21 54.56 973.05 54.71 C 975.02 55.90 977.12 56.88 979.27 57.73 C 981.82 55.67 983.67 52.77 982.33 49.39 Z" />
<path fill="#010101" d=" M 159.47 89.31 C 167.69 83.31 178.04 81.60 187.92 80.51 C 198.41 79.76 209.80 79.94 218.96 85.79 C 223.54 88.53 226.57 93.64 226.51 99.02 C 226.38 106.66 225.25 114.31 222.75 121.55 C 213.37 118.15 203.07 115.33 193.08 117.50 C 185.57 119.04 181.17 126.21 178.76 132.91 C 174.55 145.12 173.70 158.16 173.26 170.97 C 173.24 185.38 172.90 199.91 175.42 214.15 C 176.65 219.98 178.27 226.10 182.43 230.57 C 186.45 234.74 192.50 235.96 198.08 235.99 C 206.18 235.73 214.30 234.06 221.71 230.71 C 223.56 238.36 225.34 246.18 224.93 254.11 C 224.59 259.43 220.57 263.67 216.13 266.18 C 208.23 270.66 199.05 272.20 190.09 272.70 C 178.67 273.06 166.76 272.56 156.21 267.70 C 148.89 264.16 143.31 257.70 139.74 250.50 C 135.98 242.85 133.96 234.49 132.56 226.13 C 129.50 207.26 129.60 188.09 129.81 169.04 C 130.47 152.71 132.05 136.15 137.74 120.70 C 141.99 108.58 148.74 96.79 159.47 89.31 Z" />
<path fill="#010101" d=" M 287.62 80.76 C 300.78 79.40 314.74 80.26 326.76 86.24 C 338.72 92.57 345.29 105.39 348.84 117.93 C 353.01 132.53 354.14 147.77 354.68 162.88 C 355.01 180.98 354.82 199.23 351.51 217.09 C 348.64 232.33 343.64 248.09 332.32 259.23 C 321.76 269.58 306.39 273.30 291.96 272.77 C 280.69 272.47 268.60 271.43 258.98 264.97 C 250.85 259.42 245.69 250.51 242.71 241.30 C 237.15 224.47 236.24 206.58 235.55 189.01 C 235.18 165.57 235.41 141.51 243.19 119.12 C 247.99 105.26 257.31 92.39 270.73 85.86 C 275.99 83.14 281.78 81.59 287.62 80.76 Z" />
<path fill="#010101" d=" M 371.47 86.29 C 373.30 84.97 375.65 84.78 377.83 84.56 C 389.78 83.62 401.78 84.13 413.76 84.00 C 413.75 127.65 413.76 171.31 413.75 214.96 C 413.77 220.71 413.46 226.72 415.74 232.13 C 416.85 235.01 419.95 236.46 422.84 236.85 C 428.73 237.56 435.07 236.49 439.73 232.59 C 439.79 185.40 439.71 138.21 439.77 91.02 C 439.95 89.32 439.72 87.26 441.10 85.99 C 443.17 84.70 445.73 84.71 448.08 84.45 C 459.20 83.67 470.36 84.11 481.51 84.01 C 481.50 142.26 481.50 200.51 481.51 258.76 C 460.15 270.51 435.02 275.13 410.87 271.83 C 398.79 270.29 386.29 265.21 379.21 254.84 C 371.54 243.87 370.96 229.92 370.51 217.01 C 370.47 175.67 370.52 134.34 370.49 93.00 C 370.53 90.74 370.56 88.40 371.47 86.29 Z" />
<path fill="#fefefe" d=" M 292.45 116.55 C 296.68 115.01 302.51 116.40 304.42 120.83 C 307.08 126.37 307.60 132.61 308.16 138.64 C 308.94 150.07 309.06 161.52 309.00 172.97 C 309.08 189.71 308.90 206.57 305.84 223.07 C 305.03 227.13 304.14 231.33 301.83 234.83 C 298.02 240.06 288.55 238.90 286.20 232.85 C 284.06 227.96 283.46 222.58 282.80 217.34 C 281.42 204.27 281.17 191.12 281.25 177.99 C 281.22 161.93 281.24 145.70 284.36 129.88 C 285.54 124.83 287.01 118.59 292.45 116.55 Z" />
<path fill="#fefefe" d=" M 883.25 160.77 C 887.77 162.88 892.01 165.52 896.45 167.79 C 896.55 168.14 896.75 168.85 896.85 169.21 C 892.51 170.40 888.42 172.33 884.62 174.73 C 883.76 170.12 883.44 165.44 883.25 160.77 Z" />
<path fill="#fefefe" d=" M 868.60 250.13 C 863.83 250.24 866.49 244.86 867.04 242.28 C 867.80 244.83 868.36 247.46 868.60 250.13 Z" />
</svg>
